# xmcd
#
# Track frame offsets: 
#        150
#        14923
#        36815
#        53511
#        87923
#        103083
#        118362
#        143402
#        159783
#        186257
#        205581
#        219177
#
# Disc length: 3244 seconds
#
# Revision: 1
# Processed by: cddbd v1.5.2PL0 Copyright (c) Steve Scherf et al.
# Submitted via: ExactAudioCopy v1.0b1
#
DISCID=9c0caa0c
DTITLE=Breakout - Tylko polskie piosenki. Poszłabym za tobą
DYEAR=2011
DGENRE=Blues
TTITLE0=Poszłabym za tobą
TTITLE1=Taki wiatr
TTITLE2=Słuchaj rytmu
TTITLE3=W pochodzie codzienności
TTITLE4=Biel
TTITLE5=Chciałabym być slońcem
TTITLE6=Gdzie mnie wiodą
TTITLE7=Co za człowiek
TTITLE8=Zabierz smutek
TTITLE9=Na naszej drodze
TTITLE10=Oni zaraz przyjdą tu
TTITLE11=Czy mne jeszcze pamiętasz
EXTD=
EXTT0=
EXTT1=
EXTT2=
EXTT3=
EXTT4=
EXTT5=
EXTT6=
EXTT7=
EXTT8=
EXTT9=
EXTT10=
EXTT11=
PLAYORDER=
